<?xml version="1.0" encoding="UTF-8" standalone="no"?>
<!DOCTYPE svg PUBLIC "-//W3C//DTD SVG 1.1//EN"
 "http://www.w3.org/Graphics/SVG/1.1/DTD/svg11.dtd">
<!-- Generated by graphviz version 2.46.0 (0)
 -->
<!-- Title: Systems Pages: 1 -->
<svg width="863pt" height="1853pt"
 viewBox="0.00 0.00 863.00 1853.00" xmlns="http://www.w3.org/2000/svg" xmlns:xlink="http://www.w3.org/1999/xlink">
<g id="graph0" class="graph" transform="scale(1 1) rotate(0) translate(4 1849)">
<title>Systems</title>
<polygon fill="white" stroke="transparent" points="-4,4 -4,-1849 859,-1849 859,4 -4,4"/>
<!-- 49.212.27.40 -->
<g id="node1" class="node">
<title>49.212.27.40</title>
<path fill="#5ea4ff" stroke="black" stroke-width="2" d="M530.5,-144C530.5,-144 252.5,-144 252.5,-144 246.5,-144 240.5,-138 240.5,-132 240.5,-132 240.5,-120 240.5,-120 240.5,-114 246.5,-108 252.5,-108 252.5,-108 530.5,-108 530.5,-108 536.5,-108 542.5,-114 542.5,-120 542.5,-120 542.5,-132 542.5,-132 542.5,-138 536.5,-144 530.5,-144"/>
<text text-anchor="middle" x="391.5" y="-122.3" font-family="Arial" font-size="14.00">49.212.27.40,SAKURA&#45;C SAKURA Internet Inc.</text>
</g>
<!-- 4 -->
<g id="node41" class="node">
<title>4</title>
<path fill="#a0ffa0" stroke="black" stroke-width="2" d="M843,-252C843,-252 607,-252 607,-252 601,-252 595,-246 595,-240 595,-240 595,-228 595,-228 595,-222 601,-216 607,-216 607,-216 843,-216 843,-216 849,-216 855,-222 855,-228 855,-228 855,-240 855,-240 855,-246 849,-252 843,-252"/>
<text text-anchor="middle" x="725" y="-230.3" font-family="Arial" font-size="14.00">80, open, Apache httpd 2.2.3 ((CentOS))</text>
</g>
<!-- 49.212.27.40&#45;&gt;4 -->
<g id="edge60" class="edge">
<title>49.212.27.40&#45;&gt;4</title>
<path fill="none" stroke="black" d="M431.73,-144.07C472,-162.05 536.82,-189.42 595,-207 602.63,-209.31 610.57,-211.48 618.6,-213.53"/>
<polygon fill="black" stroke="black" points="617.87,-216.95 628.42,-215.95 619.55,-210.16 617.87,-216.95"/>
</g>
<!-- 2 -->
<g id="node46" class="node">
<title>2</title>
<path fill="#a0ffa0" stroke="black" stroke-width="2" d="M751.5,-198C751.5,-198 698.5,-198 698.5,-198 692.5,-198 686.5,-192 686.5,-186 686.5,-186 686.5,-174 686.5,-174 686.5,-168 692.5,-162 698.5,-162 698.5,-162 751.5,-162 751.5,-162 757.5,-162 763.5,-168 763.5,-174 763.5,-174 763.5,-186 763.5,-186 763.5,-192 757.5,-198 751.5,-198"/>
<text text-anchor="middle" x="725" y="-176.3" font-family="Arial" font-size="14.00">22, open, </text>
</g>
<!-- 49.212.27.40&#45;&gt;2 -->
<g id="edge58" class="edge">
<title>49.212.27.40&#45;&gt;2</title>
<path fill="none" stroke="black" d="M503.35,-144.06C562.02,-153.61 631.04,-164.86 676.06,-172.19"/>
<polygon fill="black" stroke="black" points="675.69,-175.68 686.12,-173.83 676.82,-168.77 675.69,-175.68"/>
</g>
<!-- 0 -->
<g id="node48" class="node">
<title>0</title>
<path fill="#8697a3" stroke="black" stroke-width="2" d="M760.5,-144C760.5,-144 689.5,-144 689.5,-144 683.5,-144 677.5,-138 677.5,-132 677.5,-132 677.5,-120 677.5,-120 677.5,-114 683.5,-108 689.5,-108 689.5,-108 760.5,-108 760.5,-108 766.5,-108 772.5,-114 772.5,-120 772.5,-120 772.5,-132 772.5,-132 772.5,-138 766.5,-144 760.5,-144"/>
<text text-anchor="middle" x="725" y="-122.3" font-family="Arial" font-size="14.00">135, filtered, </text>
</g>
<!-- 49.212.27.40&#45;&gt;0 -->
<g id="edge56" class="edge">
<title>49.212.27.40&#45;&gt;0</title>
<path fill="none" stroke="black" d="M542.73,-126C586.98,-126 632.71,-126 667.17,-126"/>
<polygon fill="black" stroke="black" points="667.49,-129.5 677.49,-126 667.49,-122.5 667.49,-129.5"/>
</g>
<!-- 1 -->
<g id="node51" class="node">
<title>1</title>
<path fill="#8697a3" stroke="black" stroke-width="2" d="M760.5,-90C760.5,-90 689.5,-90 689.5,-90 683.5,-90 677.5,-84 677.5,-78 677.5,-78 677.5,-66 677.5,-66 677.5,-60 683.5,-54 689.5,-54 689.5,-54 760.5,-54 760.5,-54 766.5,-54 772.5,-60 772.5,-66 772.5,-66 772.5,-78 772.5,-78 772.5,-84 766.5,-90 760.5,-90"/>
<text text-anchor="middle" x="725" y="-68.3" font-family="Arial" font-size="14.00">445, filtered, </text>
</g>
<!-- 49.212.27.40&#45;&gt;1 -->
<g id="edge57" class="edge">
<title>49.212.27.40&#45;&gt;1</title>
<path fill="none" stroke="black" d="M503.35,-107.94C558.35,-98.98 622.45,-88.54 667.34,-81.23"/>
<polygon fill="black" stroke="black" points="668.16,-84.64 677.47,-79.58 667.04,-77.73 668.16,-84.64"/>
</g>
<!-- 3 -->
<g id="node52" class="node">
<title>3</title>
<path fill="#8697a3" stroke="black" stroke-width="2" d="M760.5,-36C760.5,-36 689.5,-36 689.5,-36 683.5,-36 677.5,-30 677.5,-24 677.5,-24 677.5,-12 677.5,-12 677.5,-6 683.5,0 689.5,0 689.5,0 760.5,0 760.5,0 766.5,0 772.5,-6 772.5,-12 772.5,-12 772.5,-24 772.5,-24 772.5,-30 766.5,-36 760.5,-36"/>
<text text-anchor="middle" x="725" y="-14.3" font-family="Arial" font-size="14.00">139, filtered, </text>
</g>
<!-- 49.212.27.40&#45;&gt;3 -->
<g id="edge59" class="edge">
<title>49.212.27.40&#45;&gt;3</title>
<path fill="none" stroke="black" d="M431.73,-107.93C472,-89.95 536.82,-62.58 595,-45 618.37,-37.94 644.67,-32.07 667.4,-27.63"/>
<polygon fill="black" stroke="black" points="668.07,-31.07 677.24,-25.76 666.76,-24.19 668.07,-31.07"/>
</g>
<!-- 74.114.154.18 -->
<g id="node2" class="node">
<title>74.114.154.18</title>
<path fill="#5ea4ff" stroke="black" stroke-width="2" d="M527.5,-360C527.5,-360 255.5,-360 255.5,-360 249.5,-360 243.5,-354 243.5,-348 243.5,-348 243.5,-336 243.5,-336 243.5,-330 249.5,-324 255.5,-324 255.5,-324 527.5,-324 527.5,-324 533.5,-324 539.5,-330 539.5,-336 539.5,-336 539.5,-348 539.5,-348 539.5,-354 533.5,-360 527.5,-360"/>
<text text-anchor="middle" x="391.5" y="-338.3" font-family="Arial" font-size="14.00">74.114.154.18,AUTOMATTIC &#45; Automattic, Inc</text>
</g>
<!-- 5 -->
<g id="node42" class="node">
<title>5</title>
<path fill="#a0ffa0" stroke="black" stroke-width="2" d="M837,-360C837,-360 613,-360 613,-360 607,-360 601,-354 601,-348 601,-348 601,-336 601,-336 601,-330 607,-324 613,-324 613,-324 837,-324 837,-324 843,-324 849,-330 849,-336 849,-336 849,-348 849,-348 849,-354 843,-360 837,-360"/>
<text text-anchor="middle" x="725" y="-338.3" font-family="Arial" font-size="14.00">443, open, OpenResty web app server</text>
</g>
<!-- 74.114.154.18&#45;&gt;5 -->
<g id="edge61" class="edge">
<title>74.114.154.18&#45;&gt;5</title>
<path fill="none" stroke="black" d="M539.83,-342C556.73,-342 573.89,-342 590.59,-342"/>
<polygon fill="black" stroke="black" points="590.92,-345.5 600.92,-342 590.92,-338.5 590.92,-345.5"/>
</g>
<!-- 6 -->
<g id="node50" class="node">
<title>6</title>
<path fill="#a0ffa0" stroke="black" stroke-width="2" d="M833.5,-306C833.5,-306 616.5,-306 616.5,-306 610.5,-306 604.5,-300 604.5,-294 604.5,-294 604.5,-282 604.5,-282 604.5,-276 610.5,-270 616.5,-270 616.5,-270 833.5,-270 833.5,-270 839.5,-270 845.5,-276 845.5,-282 845.5,-282 845.5,-294 845.5,-294 845.5,-300 839.5,-306 833.5,-306"/>
<text text-anchor="middle" x="725" y="-284.3" font-family="Arial" font-size="14.00">80, open, OpenResty web app server</text>
</g>
<!-- 74.114.154.18&#45;&gt;6 -->
<g id="edge62" class="edge">
<title>74.114.154.18&#45;&gt;6</title>
<path fill="none" stroke="black" d="M504.01,-323.94C522.38,-320.96 541.22,-317.9 559,-315 573.57,-312.63 588.86,-310.13 604.02,-307.65"/>
<polygon fill="black" stroke="black" points="604.64,-311.1 613.95,-306.03 603.51,-304.19 604.64,-311.1"/>
</g>
<!-- 74.114.154.22 -->
<g id="node3" class="node">
<title>74.114.154.22</title>
<path fill="#5ea4ff" stroke="black" stroke-width="2" d="M527.5,-306C527.5,-306 255.5,-306 255.5,-306 249.5,-306 243.5,-300 243.5,-294 243.5,-294 243.5,-282 243.5,-282 243.5,-276 249.5,-270 255.5,-270 255.5,-270 527.5,-270 527.5,-270 533.5,-270 539.5,-276 539.5,-282 539.5,-282 539.5,-294 539.5,-294 539.5,-300 533.5,-306 527.5,-306"/>
<text text-anchor="middle" x="391.5" y="-284.3" font-family="Arial" font-size="14.00">74.114.154.22,AUTOMATTIC &#45; Automattic, Inc</text>
</g>
<!-- 74.114.154.22&#45;&gt;5 -->
<g id="edge64" class="edge">
<title>74.114.154.22&#45;&gt;5</title>
<path fill="none" stroke="black" d="M504.01,-306.06C522.38,-309.04 541.22,-312.1 559,-315 573.57,-317.37 588.86,-319.87 604.02,-322.35"/>
<polygon fill="black" stroke="black" points="603.51,-325.81 613.95,-323.97 604.64,-318.9 603.51,-325.81"/>
</g>
<!-- 74.114.154.22&#45;&gt;6 -->
<g id="edge63" class="edge">
<title>74.114.154.22&#45;&gt;6</title>
<path fill="none" stroke="black" d="M539.83,-288C557.9,-288 576.26,-288 594.05,-288"/>
<polygon fill="black" stroke="black" points="594.45,-291.5 604.45,-288 594.45,-284.5 594.45,-291.5"/>
</g>
<!-- 158.69.18.72 -->
<g id="node4" class="node">
<title>158.69.18.72</title>
<path fill="#5ea4ff" stroke="black" stroke-width="2" d="M444,-576C444,-576 339,-576 339,-576 333,-576 327,-570 327,-564 327,-564 327,-552 327,-552 327,-546 333,-540 339,-540 339,-540 444,-540 444,-540 450,-540 456,-546 456,-552 456,-552 456,-564 456,-564 456,-570 450,-576 444,-576"/>
<text text-anchor="middle" x="391.5" y="-554.3" font-family="Arial" font-size="14.00">158.69.18.72,OVH</text>
</g>
<!-- 104.19.129.108 -->
<g id="node5" class="node">
<title>104.19.129.108</title>
<path fill="#5ea4ff" stroke="black" stroke-width="2" d="M547,-1170C547,-1170 236,-1170 236,-1170 230,-1170 224,-1164 224,-1158 224,-1158 224,-1146 224,-1146 224,-1140 230,-1134 236,-1134 236,-1134 547,-1134 547,-1134 553,-1134 559,-1140 559,-1146 559,-1146 559,-1158 559,-1158 559,-1164 553,-1170 547,-1170"/>
<text text-anchor="middle" x="391.5" y="-1148.3" font-family="Arial" font-size="14.00">104.19.129.108,CLOUDFLARENET &#45; Cloudflare, Inc.</text>
</g>
<!-- 9 -->
<g id="node40" class="node">
<title>9</title>
<path fill="#a0ffa0" stroke="black" stroke-width="2" d="M821,-1116C821,-1116 629,-1116 629,-1116 623,-1116 617,-1110 617,-1104 617,-1104 617,-1092 617,-1092 617,-1086 623,-1080 629,-1080 629,-1080 821,-1080 821,-1080 827,-1080 833,-1086 833,-1092 833,-1092 833,-1104 833,-1104 833,-1110 827,-1116 821,-1116"/>
<text text-anchor="middle" x="725" y="-1094.3" font-family="Arial" font-size="14.00">8080, open, Cloudflare http proxy</text>
</g>
<!-- 104.19.129.108&#45;&gt;9 -->
<g id="edge67" class="edge">
<title>104.19.129.108&#45;&gt;9</title>
<path fill="none" stroke="black" d="M504.01,-1133.94C522.38,-1130.96 541.22,-1127.9 559,-1125 574.42,-1122.49 590.65,-1119.84 606.67,-1117.22"/>
<polygon fill="black" stroke="black" points="607.3,-1120.66 616.61,-1115.6 606.17,-1113.76 607.3,-1120.66"/>
</g>
<!-- 7 -->
<g id="node43" class="node">
<title>7</title>
<path fill="#a0ffa0" stroke="black" stroke-width="2" d="M817.5,-1062C817.5,-1062 632.5,-1062 632.5,-1062 626.5,-1062 620.5,-1056 620.5,-1050 620.5,-1050 620.5,-1038 620.5,-1038 620.5,-1032 626.5,-1026 632.5,-1026 632.5,-1026 817.5,-1026 817.5,-1026 823.5,-1026 829.5,-1032 829.5,-1038 829.5,-1038 829.5,-1050 829.5,-1050 829.5,-1056 823.5,-1062 817.5,-1062"/>
<text text-anchor="middle" x="725" y="-1040.3" font-family="Arial" font-size="14.00">443, open, Cloudflare http proxy</text>
</g>
<!-- 104.19.129.108&#45;&gt;7 -->
<g id="edge65" class="edge">
<title>104.19.129.108&#45;&gt;7</title>
<path fill="none" stroke="black" d="M542.75,-1133.93C548.39,-1131.29 553.83,-1128.33 559,-1125 583.26,-1109.39 571.11,-1087.16 595,-1071 599.98,-1067.63 605.29,-1064.67 610.82,-1062.07"/>
<polygon fill="black" stroke="black" points="612.49,-1065.17 620.31,-1058.02 609.74,-1058.73 612.49,-1065.17"/>
</g>
<!-- 8 -->
<g id="node44" class="node">
<title>8</title>
<path fill="#a0ffa0" stroke="black" stroke-width="2" d="M813.5,-1224C813.5,-1224 636.5,-1224 636.5,-1224 630.5,-1224 624.5,-1218 624.5,-1212 624.5,-1212 624.5,-1200 624.5,-1200 624.5,-1194 630.5,-1188 636.5,-1188 636.5,-1188 813.5,-1188 813.5,-1188 819.5,-1188 825.5,-1194 825.5,-1200 825.5,-1200 825.5,-1212 825.5,-1212 825.5,-1218 819.5,-1224 813.5,-1224"/>
<text text-anchor="middle" x="725" y="-1202.3" font-family="Arial" font-size="14.00">80, open, Cloudflare http proxy</text>
</g>
<!-- 104.19.129.108&#45;&gt;8 -->
<g id="edge66" class="edge">
<title>104.19.129.108&#45;&gt;8</title>
<path fill="none" stroke="black" d="M503.35,-1170.06C539.13,-1175.89 578.77,-1182.34 614.46,-1188.16"/>
<polygon fill="black" stroke="black" points="613.98,-1191.62 624.41,-1189.78 615.11,-1184.72 613.98,-1191.62"/>
</g>
<!-- 10 -->
<g id="node45" class="node">
<title>10</title>
<path fill="#a0ffa0" stroke="black" stroke-width="2" d="M821,-1170C821,-1170 629,-1170 629,-1170 623,-1170 617,-1164 617,-1158 617,-1158 617,-1146 617,-1146 617,-1140 623,-1134 629,-1134 629,-1134 821,-1134 821,-1134 827,-1134 833,-1140 833,-1146 833,-1146 833,-1158 833,-1158 833,-1164 827,-1170 821,-1170"/>
<text text-anchor="middle" x="725" y="-1148.3" font-family="Arial" font-size="14.00">8443, open, Cloudflare http proxy</text>
</g>
<!-- 104.19.129.108&#45;&gt;10 -->
<g id="edge68" class="edge">
<title>104.19.129.108&#45;&gt;10</title>
<path fill="none" stroke="black" d="M559.22,-1152C575.22,-1152 591.22,-1152 606.6,-1152"/>
<polygon fill="black" stroke="black" points="606.61,-1155.5 616.61,-1152 606.61,-1148.5 606.61,-1155.5"/>
</g>
<!-- 142.44.218.139 -->
<g id="node6" class="node">
<title>142.44.218.139</title>
<path fill="#5ea4ff" stroke="black" stroke-width="2" d="M451.5,-522C451.5,-522 331.5,-522 331.5,-522 325.5,-522 319.5,-516 319.5,-510 319.5,-510 319.5,-498 319.5,-498 319.5,-492 325.5,-486 331.5,-486 331.5,-486 451.5,-486 451.5,-486 457.5,-486 463.5,-492 463.5,-498 463.5,-498 463.5,-510 463.5,-510 463.5,-516 457.5,-522 451.5,-522"/>
<text text-anchor="middle" x="391.5" y="-500.3" font-family="Arial" font-size="14.00">142.44.218.139,OVH</text>
</g>
<!-- 144.217.129.129 -->
<g id="node7" class="node">
<title>144.217.129.129</title>
<path fill="#5ea4ff" stroke="black" stroke-width="2" d="M455.5,-468C455.5,-468 327.5,-468 327.5,-468 321.5,-468 315.5,-462 315.5,-456 315.5,-456 315.5,-444 315.5,-444 315.5,-438 321.5,-432 327.5,-432 327.5,-432 455.5,-432 455.5,-432 461.5,-432 467.5,-438 467.5,-444 467.5,-444 467.5,-456 467.5,-456 467.5,-462 461.5,-468 455.5,-468"/>
<text text-anchor="middle" x="391.5" y="-446.3" font-family="Arial" font-size="14.00">144.217.129.129,OVH</text>
</g>
<!-- 216.58.208.211 -->
<g id="node8" class="node">
<title>216.58.208.211</title>
<path fill="#5ea4ff" stroke="black" stroke-width="2" d="M509.5,-1791C509.5,-1791 273.5,-1791 273.5,-1791 267.5,-1791 261.5,-1785 261.5,-1779 261.5,-1779 261.5,-1767 261.5,-1767 261.5,-1761 267.5,-1755 273.5,-1755 273.5,-1755 509.5,-1755 509.5,-1755 515.5,-1755 521.5,-1761 521.5,-1767 521.5,-1767 521.5,-1779 521.5,-1779 521.5,-1785 515.5,-1791 509.5,-1791"/>
<text text-anchor="middle" x="391.5" y="-1769.3" font-family="Arial" font-size="14.00">216.58.208.211,GOOGLE &#45; Google LLC</text>
</g>
<!-- 11 -->
<g id="node47" class="node">
<title>11</title>
<path fill="#a0ffa0" stroke="black" stroke-width="2" d="M755,-1818C755,-1818 695,-1818 695,-1818 689,-1818 683,-1812 683,-1806 683,-1806 683,-1794 683,-1794 683,-1788 689,-1782 695,-1782 695,-1782 755,-1782 755,-1782 761,-1782 767,-1788 767,-1794 767,-1794 767,-1806 767,-1806 767,-1812 761,-1818 755,-1818"/>
<text text-anchor="middle" x="725" y="-1796.3" font-family="Arial" font-size="14.00">443, open, </text>
</g>
<!-- 216.58.208.211&#45;&gt;11 -->
<g id="edge69" class="edge">
<title>216.58.208.211&#45;&gt;11</title>
<path fill="none" stroke="black" d="M521.62,-1783.52C574.46,-1787.82 632.54,-1792.55 672.87,-1795.84"/>
<polygon fill="black" stroke="black" points="672.74,-1799.34 682.99,-1796.66 673.31,-1792.36 672.74,-1799.34"/>
</g>
<!-- 12 -->
<g id="node49" class="node">
<title>12</title>
<path fill="#a0ffa0" stroke="black" stroke-width="2" d="M790.5,-1764C790.5,-1764 659.5,-1764 659.5,-1764 653.5,-1764 647.5,-1758 647.5,-1752 647.5,-1752 647.5,-1740 647.5,-1740 647.5,-1734 653.5,-1728 659.5,-1728 659.5,-1728 790.5,-1728 790.5,-1728 796.5,-1728 802.5,-1734 802.5,-1740 802.5,-1740 802.5,-1752 802.5,-1752 802.5,-1758 796.5,-1764 790.5,-1764"/>
<text text-anchor="middle" x="725" y="-1742.3" font-family="Arial" font-size="14.00">80, open, Google httpd</text>
</g>
<!-- 216.58.208.211&#45;&gt;12 -->
<g id="edge70" class="edge">
<title>216.58.208.211&#45;&gt;12</title>
<path fill="none" stroke="black" d="M521.62,-1762.48C560.33,-1759.33 601.86,-1755.95 637.16,-1753.07"/>
<polygon fill="black" stroke="black" points="637.74,-1756.54 647.42,-1752.24 637.17,-1749.56 637.74,-1756.54"/>
</g>
<!-- 104.19.128.108 -->
<g id="node9" class="node">
<title>104.19.128.108</title>
<path fill="#5ea4ff" stroke="black" stroke-width="2" d="M547,-1116C547,-1116 236,-1116 236,-1116 230,-1116 224,-1110 224,-1104 224,-1104 224,-1092 224,-1092 224,-1086 230,-1080 236,-1080 236,-1080 547,-1080 547,-1080 553,-1080 559,-1086 559,-1092 559,-1092 559,-1104 559,-1104 559,-1110 553,-1116 547,-1116"/>
<text text-anchor="middle" x="391.5" y="-1094.3" font-family="Arial" font-size="14.00">104.19.128.108,CLOUDFLARENET &#45; Cloudflare, Inc.</text>
</g>
<!-- 104.19.128.108&#45;&gt;9 -->
<g id="edge73" class="edge">
<title>104.19.128.108&#45;&gt;9</title>
<path fill="none" stroke="black" d="M559.22,-1098C575.22,-1098 591.22,-1098 606.6,-1098"/>
<polygon fill="black" stroke="black" points="606.61,-1101.5 616.61,-1098 606.61,-1094.5 606.61,-1101.5"/>
</g>
<!-- 104.19.128.108&#45;&gt;7 -->
<g id="edge74" class="edge">
<title>104.19.128.108&#45;&gt;7</title>
<path fill="none" stroke="black" d="M503.35,-1079.94C537.69,-1074.35 575.59,-1068.18 610.14,-1062.55"/>
<polygon fill="black" stroke="black" points="610.96,-1065.96 620.26,-1060.9 609.83,-1059.05 610.96,-1065.96"/>
</g>
<!-- 104.19.128.108&#45;&gt;8 -->
<g id="edge71" class="edge">
<title>104.19.128.108&#45;&gt;8</title>
<path fill="none" stroke="black" d="M542.75,-1116.07C548.39,-1118.71 553.83,-1121.67 559,-1125 583.26,-1140.61 571.11,-1162.84 595,-1179 601.12,-1183.14 607.76,-1186.67 614.68,-1189.67"/>
<polygon fill="black" stroke="black" points="613.67,-1193.03 624.26,-1193.44 616.24,-1186.52 613.67,-1193.03"/>
</g>
<!-- 104.19.128.108&#45;&gt;10 -->
<g id="edge72" class="edge">
<title>104.19.128.108&#45;&gt;10</title>
<path fill="none" stroke="black" d="M504.01,-1116.06C522.38,-1119.04 541.22,-1122.1 559,-1125 574.42,-1127.51 590.65,-1130.16 606.67,-1132.78"/>
<polygon fill="black" stroke="black" points="606.17,-1136.24 616.61,-1134.4 607.3,-1129.34 606.17,-1136.24"/>
</g>
<!-- 104.225.112.136 -->
<g id="node10" class="node">
<title>104.225.112.136</title>
<path fill="#5ea4ff" stroke="black" stroke-width="2" d="M536.5,-1845C536.5,-1845 246.5,-1845 246.5,-1845 240.5,-1845 234.5,-1839 234.5,-1833 234.5,-1833 234.5,-1821 234.5,-1821 234.5,-1815 240.5,-1809 246.5,-1809 246.5,-1809 536.5,-1809 536.5,-1809 542.5,-1809 548.5,-1815 548.5,-1821 548.5,-1821 548.5,-1833 548.5,-1833 548.5,-1839 542.5,-1845 536.5,-1845"/>
<text text-anchor="middle" x="391.5" y="-1823.3" font-family="Arial" font-size="14.00">104.225.112.136,NETACTUATE &#45; NetActuate, Inc</text>
</g>
<!-- 144.217.123.248 -->
<g id="node11" class="node">
<title>144.217.123.248</title>
<path fill="#5ea4ff" stroke="black" stroke-width="2" d="M455.5,-414C455.5,-414 327.5,-414 327.5,-414 321.5,-414 315.5,-408 315.5,-402 315.5,-402 315.5,-390 315.5,-390 315.5,-384 321.5,-378 327.5,-378 327.5,-378 455.5,-378 455.5,-378 461.5,-378 467.5,-384 467.5,-390 467.5,-390 467.5,-402 467.5,-402 467.5,-408 461.5,-414 455.5,-414"/>
<text text-anchor="middle" x="391.5" y="-392.3" font-family="Arial" font-size="14.00">144.217.123.248,OVH</text>
</g>
<!-- 2147483667 -->
<g id="node12" class="node">
<title>2147483667</title>
<path fill="#fffb82" stroke="black" stroke-width="2" d="M131,-1413C131,-1413 57,-1413 57,-1413 51,-1413 45,-1407 45,-1401 45,-1401 45,-1389 45,-1389 45,-1383 51,-1377 57,-1377 57,-1377 131,-1377 131,-1377 137,-1377 143,-1383 143,-1389 143,-1389 143,-1401 143,-1401 143,-1407 137,-1413 131,-1413"/>
<text text-anchor="middle" x="94" y="-1391.3" font-family="Arial" font-size="14.00">zip.4chan.org</text>
</g>
<!-- 2147483667&#45;&gt;104.19.129.108 -->
<g id="edge21" class="edge">
<title>2147483667&#45;&gt;104.19.129.108</title>
<path fill="none" stroke="black" d="M143.41,-1386.17C158.41,-1382.1 174.53,-1376.26 188,-1368 270.57,-1317.36 341.3,-1224.24 372.89,-1178.61"/>
<polygon fill="black" stroke="black" points="375.92,-1180.38 378.67,-1170.15 370.14,-1176.43 375.92,-1180.38"/>
</g>
<!-- 2147483667&#45;&gt;104.19.128.108 -->
<g id="edge37" class="edge">
<title>2147483667&#45;&gt;104.19.128.108</title>
<path fill="none" stroke="black" d="M143.23,-1391.47C159.67,-1387.83 176.72,-1380.92 188,-1368 259.8,-1285.75 147.33,-1202.73 224,-1125 224.8,-1124.19 225.61,-1123.4 226.43,-1122.63"/>
<polygon fill="black" stroke="black" points="228.76,-1125.25 234.2,-1116.16 224.27,-1119.87 228.76,-1125.25"/>
</g>
<!-- 2147483648 -->
<g id="node13" class="node">
<title>2147483648</title>
<path fill="#fffb82" stroke="black" stroke-width="2" d="M123.5,-144C123.5,-144 64.5,-144 64.5,-144 58.5,-144 52.5,-138 52.5,-132 52.5,-132 52.5,-120 52.5,-120 52.5,-114 58.5,-108 64.5,-108 64.5,-108 123.5,-108 123.5,-108 129.5,-108 135.5,-114 135.5,-120 135.5,-120 135.5,-132 135.5,-132 135.5,-138 129.5,-144 123.5,-144"/>
<text text-anchor="middle" x="94" y="-122.3" font-family="Arial" font-size="14.00">j.4chan.org</text>
</g>
<!-- 2147483648&#45;&gt;49.212.27.40 -->
<g id="edge1" class="edge">
<title>2147483648&#45;&gt;49.212.27.40</title>
<path fill="none" stroke="black" d="M135.78,-126C160.92,-126 194.98,-126 230,-126"/>
<polygon fill="black" stroke="black" points="230.39,-129.5 240.39,-126 230.39,-122.5 230.39,-129.5"/>
</g>
<!-- 2147483668 -->
<g id="node14" class="node">
<title>2147483668</title>
<path fill="#fffb82" stroke="black" stroke-width="2" d="M133,-1359C133,-1359 55,-1359 55,-1359 49,-1359 43,-1353 43,-1347 43,-1347 43,-1335 43,-1335 43,-1329 49,-1323 55,-1323 55,-1323 133,-1323 133,-1323 139,-1323 145,-1329 145,-1335 145,-1335 145,-1347 145,-1347 145,-1353 139,-1359 133,-1359"/>
<text text-anchor="middle" x="94" y="-1337.3" font-family="Arial" font-size="14.00">ims.4chan.org</text>
</g>
<!-- 2147483668&#45;&gt;104.19.129.108 -->
<g id="edge22" class="edge">
<title>2147483668&#45;&gt;104.19.129.108</title>
<path fill="none" stroke="black" d="M145.14,-1330.32C159.43,-1326.25 174.72,-1320.89 188,-1314 259.45,-1276.93 329.86,-1212.62 365.84,-1177.21"/>
<polygon fill="black" stroke="black" points="368.36,-1179.64 372.99,-1170.11 363.43,-1174.67 368.36,-1179.64"/>
</g>
<!-- 2147483668&#45;&gt;104.19.128.108 -->
<g id="edge38" class="edge">
<title>2147483668&#45;&gt;104.19.128.108</title>
<path fill="none" stroke="black" d="M145.36,-1336.65C161.01,-1332.86 177.02,-1326.06 188,-1314 245.55,-1250.75 162.71,-1184.63 224,-1125 224.94,-1124.08 225.91,-1123.19 226.89,-1122.31"/>
<polygon fill="black" stroke="black" points="229.08,-1125.05 234.72,-1116.08 224.72,-1119.57 229.08,-1125.05"/>
</g>
<!-- 2147483656 -->
<g id="node15" class="node">
<title>2147483656</title>
<path fill="#fffb82" stroke="black" stroke-width="2" d="M144.5,-1305C144.5,-1305 43.5,-1305 43.5,-1305 37.5,-1305 31.5,-1299 31.5,-1293 31.5,-1293 31.5,-1281 31.5,-1281 31.5,-1275 37.5,-1269 43.5,-1269 43.5,-1269 144.5,-1269 144.5,-1269 150.5,-1269 156.5,-1275 156.5,-1281 156.5,-1281 156.5,-1293 156.5,-1293 156.5,-1299 150.5,-1305 144.5,-1305"/>
<text text-anchor="middle" x="94" y="-1283.3" font-family="Arial" font-size="14.00">images.4chan.org</text>
</g>
<!-- 2147483656&#45;&gt;104.19.129.108 -->
<g id="edge10" class="edge">
<title>2147483656&#45;&gt;104.19.129.108</title>
<path fill="none" stroke="black" d="M156.65,-1271.06C167.24,-1267.77 178.03,-1264.05 188,-1260 247.7,-1235.72 312.81,-1199 352.65,-1175.26"/>
<polygon fill="black" stroke="black" points="354.47,-1178.25 361.25,-1170.1 350.87,-1172.25 354.47,-1178.25"/>
</g>
<!-- 2147483656&#45;&gt;104.19.128.108 -->
<g id="edge53" class="edge">
<title>2147483656&#45;&gt;104.19.128.108</title>
<path fill="none" stroke="black" d="M156.95,-1278.62C168.48,-1274.57 179.53,-1268.65 188,-1260 231.42,-1215.61 177.95,-1166.66 224,-1125 225.01,-1124.09 226.03,-1123.2 227.08,-1122.34"/>
<polygon fill="black" stroke="black" points="229.45,-1124.94 235.39,-1116.17 225.28,-1119.31 229.45,-1124.94"/>
</g>
<!-- 2147483670 -->
<g id="node16" class="node">
<title>2147483670</title>
<path fill="#fffb82" stroke="black" stroke-width="2" d="M131.5,-1251C131.5,-1251 56.5,-1251 56.5,-1251 50.5,-1251 44.5,-1245 44.5,-1239 44.5,-1239 44.5,-1227 44.5,-1227 44.5,-1221 50.5,-1215 56.5,-1215 56.5,-1215 131.5,-1215 131.5,-1215 137.5,-1215 143.5,-1221 143.5,-1227 143.5,-1227 143.5,-1239 143.5,-1239 143.5,-1245 137.5,-1251 131.5,-1251"/>
<text text-anchor="middle" x="94" y="-1229.3" font-family="Arial" font-size="14.00">orz.4chan.org</text>
</g>
<!-- 2147483670&#45;&gt;104.19.129.108 -->
<g id="edge24" class="edge">
<title>2147483670&#45;&gt;104.19.129.108</title>
<path fill="none" stroke="black" d="M143.8,-1219.62C190.32,-1206.87 261.08,-1187.48 314.91,-1172.72"/>
<polygon fill="black" stroke="black" points="316.03,-1176.04 324.75,-1170.02 314.18,-1169.29 316.03,-1176.04"/>
</g>
<!-- 2147483670&#45;&gt;104.19.128.108 -->
<g id="edge33" class="edge">
<title>2147483670&#45;&gt;104.19.128.108</title>
<path fill="none" stroke="black" d="M143.84,-1227.1C159.39,-1223.2 175.71,-1216.72 188,-1206 217.68,-1180.1 192.8,-1149.05 224,-1125 225.61,-1123.76 227.25,-1122.57 228.93,-1121.42"/>
<polygon fill="black" stroke="black" points="230.91,-1124.31 237.56,-1116.06 227.22,-1118.36 230.91,-1124.31"/>
</g>
<!-- 2147483664 -->
<g id="node17" class="node">
<title>2147483664</title>
<path fill="#fffb82" stroke="black" stroke-width="2" d="M140,-1197C140,-1197 48,-1197 48,-1197 42,-1197 36,-1191 36,-1185 36,-1185 36,-1173 36,-1173 36,-1167 42,-1161 48,-1161 48,-1161 140,-1161 140,-1161 146,-1161 152,-1167 152,-1173 152,-1173 152,-1185 152,-1185 152,-1191 146,-1197 140,-1197"/>
<text text-anchor="middle" x="94" y="-1175.3" font-family="Arial" font-size="14.00">status.4chan.org</text>
</g>
<!-- 2147483664&#45;&gt;104.19.129.108 -->
<g id="edge18" class="edge">
<title>2147483664&#45;&gt;104.19.129.108</title>
<path fill="none" stroke="black" d="M152.33,-1173.76C170.52,-1172.1 191.68,-1170.17 213.75,-1168.15"/>
<polygon fill="black" stroke="black" points="214.3,-1171.61 223.94,-1167.22 213.66,-1164.64 214.3,-1171.61"/>
</g>
<!-- 2147483664&#45;&gt;104.19.128.108 -->
<g id="edge35" class="edge">
<title>2147483664&#45;&gt;104.19.128.108</title>
<path fill="none" stroke="black" d="M152.3,-1165.89C164.4,-1162.16 176.87,-1157.56 188,-1152 205.89,-1143.07 205.6,-1132.83 224,-1125 228.84,-1122.94 233.83,-1121.04 238.91,-1119.28"/>
<polygon fill="black" stroke="black" points="240.36,-1122.48 248.79,-1116.07 238.2,-1115.83 240.36,-1122.48"/>
</g>
<!-- 2147483666 -->
<g id="node18" class="node">
<title>2147483666</title>
<path fill="#fffb82" stroke="black" stroke-width="2" d="M125,-1143C125,-1143 63,-1143 63,-1143 57,-1143 51,-1137 51,-1131 51,-1131 51,-1119 51,-1119 51,-1113 57,-1107 63,-1107 63,-1107 125,-1107 125,-1107 131,-1107 137,-1113 137,-1119 137,-1119 137,-1131 137,-1131 137,-1137 131,-1143 125,-1143"/>
<text text-anchor="middle" x="94" y="-1121.3" font-family="Arial" font-size="14.00">v.4chan.org</text>
</g>
<!-- 2147483666&#45;&gt;104.19.129.108 -->
<g id="edge20" class="edge">
<title>2147483666&#45;&gt;104.19.129.108</title>
<path fill="none" stroke="black" d="M137.02,-1128.84C158.05,-1130.76 185.07,-1133.23 213.6,-1135.84"/>
<polygon fill="black" stroke="black" points="213.47,-1139.34 223.75,-1136.76 214.11,-1132.37 213.47,-1139.34"/>
</g>
<!-- 2147483666&#45;&gt;104.19.128.108 -->
<g id="edge48" class="edge">
<title>2147483666&#45;&gt;104.19.128.108</title>
<path fill="none" stroke="black" d="M137.02,-1121.16C158.05,-1119.24 185.07,-1116.77 213.6,-1114.16"/>
<polygon fill="black" stroke="black" points="214.11,-1117.63 223.75,-1113.24 213.47,-1110.66 214.11,-1117.63"/>
</g>
<!-- 2147483672 -->
<g id="node19" class="node">
<title>2147483672</title>
<path fill="#fffb82" stroke="black" stroke-width="2" d="M150.5,-1089C150.5,-1089 37.5,-1089 37.5,-1089 31.5,-1089 25.5,-1083 25.5,-1077 25.5,-1077 25.5,-1065 25.5,-1065 25.5,-1059 31.5,-1053 37.5,-1053 37.5,-1053 150.5,-1053 150.5,-1053 156.5,-1053 162.5,-1059 162.5,-1065 162.5,-1065 162.5,-1077 162.5,-1077 162.5,-1083 156.5,-1089 150.5,-1089"/>
<text text-anchor="middle" x="94" y="-1067.3" font-family="Arial" font-size="14.00">0.thumbs.4chan.org</text>
</g>
<!-- 2147483672&#45;&gt;104.19.129.108 -->
<g id="edge26" class="edge">
<title>2147483672&#45;&gt;104.19.129.108</title>
<path fill="none" stroke="black" d="M162.65,-1087.5C171.37,-1090.53 180.03,-1094.02 188,-1098 205.89,-1106.93 205.6,-1117.17 224,-1125 228.84,-1127.06 233.83,-1128.96 238.91,-1130.72"/>
<polygon fill="black" stroke="black" points="238.2,-1134.17 248.79,-1133.93 240.36,-1127.52 238.2,-1134.17"/>
</g>
<!-- 2147483672&#45;&gt;104.19.128.108 -->
<g id="edge43" class="edge">
<title>2147483672&#45;&gt;104.19.128.108</title>
<path fill="none" stroke="black" d="M162.79,-1077.19C178.46,-1078.63 195.85,-1080.21 213.84,-1081.86"/>
<polygon fill="black" stroke="black" points="213.6,-1085.35 223.88,-1082.78 214.24,-1078.38 213.6,-1085.35"/>
</g>
<!-- 2147483674 -->
<g id="node20" class="node">
<title>2147483674</title>
<path fill="#fffb82" stroke="black" stroke-width="2" d="M126,-1791C126,-1791 62,-1791 62,-1791 56,-1791 50,-1785 50,-1779 50,-1779 50,-1767 50,-1767 50,-1761 56,-1755 62,-1755 62,-1755 126,-1755 126,-1755 132,-1755 138,-1761 138,-1767 138,-1767 138,-1779 138,-1779 138,-1785 132,-1791 126,-1791"/>
<text text-anchor="middle" x="94" y="-1769.3" font-family="Arial" font-size="14.00">p.4chan.org</text>
</g>
<!-- 2147483674&#45;&gt;216.58.208.211 -->
<g id="edge30" class="edge">
<title>2147483674&#45;&gt;216.58.208.211</title>
<path fill="none" stroke="black" d="M138.28,-1773C168.35,-1773 210.23,-1773 251.23,-1773"/>
<polygon fill="black" stroke="black" points="251.35,-1776.5 261.35,-1773 251.35,-1769.5 251.35,-1776.5"/>
</g>
<!-- 2147483673 -->
<g id="node21" class="node">
<title>2147483673</title>
<path fill="#fffb82" stroke="black" stroke-width="2" d="M137.5,-1035C137.5,-1035 50.5,-1035 50.5,-1035 44.5,-1035 38.5,-1029 38.5,-1023 38.5,-1023 38.5,-1011 38.5,-1011 38.5,-1005 44.5,-999 50.5,-999 50.5,-999 137.5,-999 137.5,-999 143.5,-999 149.5,-1005 149.5,-1011 149.5,-1011 149.5,-1023 149.5,-1023 149.5,-1029 143.5,-1035 137.5,-1035"/>
<text text-anchor="middle" x="94" y="-1013.3" font-family="Arial" font-size="14.00">team.4chan.org</text>
</g>
<!-- 2147483673&#45;&gt;104.19.129.108 -->
<g id="edge27" class="edge">
<title>2147483673&#45;&gt;104.19.129.108</title>
<path fill="none" stroke="black" d="M149.64,-1024.47C163.36,-1028.47 177.23,-1034.6 188,-1044 217.68,-1069.9 192.8,-1100.95 224,-1125 225.61,-1126.24 227.25,-1127.43 228.93,-1128.58"/>
<polygon fill="black" stroke="black" points="227.22,-1131.64 237.56,-1133.94 230.91,-1125.69 227.22,-1131.64"/>
</g>
<!-- 2147483673&#45;&gt;104.19.128.108 -->
<g id="edge51" class="edge">
<title>2147483673&#45;&gt;104.19.128.108</title>
<path fill="none" stroke="black" d="M149.54,-1031.95C196,-1044.68 263.22,-1063.11 314.87,-1077.27"/>
<polygon fill="black" stroke="black" points="314.08,-1080.68 324.65,-1079.95 315.93,-1073.93 314.08,-1080.68"/>
</g>
<!-- 2147483675 -->
<g id="node22" class="node">
<title>2147483675</title>
<path fill="#fffb82" stroke="black" stroke-width="2" d="M176,-1845C176,-1845 12,-1845 12,-1845 6,-1845 0,-1839 0,-1833 0,-1833 0,-1821 0,-1821 0,-1815 6,-1809 12,-1809 12,-1809 176,-1809 176,-1809 182,-1809 188,-1815 188,-1821 188,-1821 188,-1833 188,-1833 188,-1839 182,-1845 176,-1845"/>
<text text-anchor="middle" x="94" y="-1823.3" font-family="Arial" font-size="14.00">dc&#45;6cd34d0cd746.4chan.org</text>
</g>
<!-- 2147483675&#45;&gt;104.225.112.136 -->
<g id="edge54" class="edge">
<title>2147483675&#45;&gt;104.225.112.136</title>
<path fill="none" stroke="black" d="M188.09,-1827C199.66,-1827 211.74,-1827 224,-1827"/>
<polygon fill="black" stroke="black" points="224.33,-1830.5 234.33,-1827 224.33,-1823.5 224.33,-1830.5"/>
</g>
<!-- 2147483654 -->
<g id="node23" class="node">
<title>2147483654</title>
<path fill="#fffb82" stroke="black" stroke-width="2" d="M144.5,-981C144.5,-981 43.5,-981 43.5,-981 37.5,-981 31.5,-975 31.5,-969 31.5,-969 31.5,-957 31.5,-957 31.5,-951 37.5,-945 43.5,-945 43.5,-945 144.5,-945 144.5,-945 150.5,-945 156.5,-951 156.5,-957 156.5,-957 156.5,-969 156.5,-969 156.5,-975 150.5,-981 144.5,-981"/>
<text text-anchor="middle" x="94" y="-959.3" font-family="Arial" font-size="14.00">thumbs.4chan.org</text>
</g>
<!-- 2147483654&#45;&gt;104.19.129.108 -->
<g id="edge8" class="edge">
<title>2147483654&#45;&gt;104.19.129.108</title>
<path fill="none" stroke="black" d="M156.95,-971.38C168.48,-975.43 179.53,-981.35 188,-990 231.42,-1034.39 177.95,-1083.34 224,-1125 225.01,-1125.91 226.03,-1126.8 227.08,-1127.66"/>
<polygon fill="black" stroke="black" points="225.28,-1130.69 235.39,-1133.83 229.45,-1125.06 225.28,-1130.69"/>
</g>
<!-- 2147483654&#45;&gt;104.19.128.108 -->
<g id="edge45" class="edge">
<title>2147483654&#45;&gt;104.19.128.108</title>
<path fill="none" stroke="black" d="M156.65,-978.94C167.24,-982.23 178.03,-985.95 188,-990 247.7,-1014.28 312.81,-1051 352.65,-1074.74"/>
<polygon fill="black" stroke="black" points="350.87,-1077.75 361.25,-1079.9 354.47,-1071.75 350.87,-1077.75"/>
</g>
<!-- 2147483659 -->
<g id="node24" class="node">
<title>2147483659</title>
<path fill="#fffb82" stroke="black" stroke-width="2" d="M136.5,-927C136.5,-927 51.5,-927 51.5,-927 45.5,-927 39.5,-921 39.5,-915 39.5,-915 39.5,-903 39.5,-903 39.5,-897 45.5,-891 51.5,-891 51.5,-891 136.5,-891 136.5,-891 142.5,-891 148.5,-897 148.5,-903 148.5,-903 148.5,-915 148.5,-915 148.5,-921 142.5,-927 136.5,-927"/>
<text text-anchor="middle" x="94" y="-905.3" font-family="Arial" font-size="14.00">www.4chan.org</text>
</g>
<!-- 2147483659&#45;&gt;104.19.129.108 -->
<g id="edge13" class="edge">
<title>2147483659&#45;&gt;104.19.129.108</title>
<path fill="none" stroke="black" d="M148.75,-914.22C163.3,-918.15 177.82,-924.81 188,-936 245.55,-999.25 162.71,-1065.37 224,-1125 224.94,-1125.92 225.91,-1126.81 226.89,-1127.69"/>
<polygon fill="black" stroke="black" points="224.72,-1130.43 234.72,-1133.92 229.08,-1124.95 224.72,-1130.43"/>
</g>
<!-- 2147483659&#45;&gt;104.19.128.108 -->
<g id="edge42" class="edge">
<title>2147483659&#45;&gt;104.19.128.108</title>
<path fill="none" stroke="black" d="M148.53,-920.66C161.82,-924.6 175.76,-929.65 188,-936 259.45,-973.07 329.86,-1037.38 365.84,-1072.79"/>
<polygon fill="black" stroke="black" points="363.43,-1075.33 372.99,-1079.89 368.36,-1070.36 363.43,-1075.33"/>
</g>
<!-- 2147483660 -->
<g id="node25" class="node">
<title>2147483660</title>
<path fill="#fffb82" stroke="black" stroke-width="2" d="M131,-873C131,-873 57,-873 57,-873 51,-873 45,-867 45,-861 45,-861 45,-849 45,-849 45,-843 51,-837 57,-837 57,-837 131,-837 131,-837 137,-837 143,-843 143,-849 143,-849 143,-861 143,-861 143,-867 137,-873 131,-873"/>
<text text-anchor="middle" x="94" y="-851.3" font-family="Arial" font-size="14.00">cgi.4chan.org</text>
</g>
<!-- 2147483660&#45;&gt;104.19.129.108 -->
<g id="edge14" class="edge">
<title>2147483660&#45;&gt;104.19.129.108</title>
<path fill="none" stroke="black" d="M143.23,-858.53C159.67,-862.17 176.72,-869.08 188,-882 259.8,-964.25 147.33,-1047.27 224,-1125 224.8,-1125.81 225.61,-1126.6 226.43,-1127.37"/>
<polygon fill="black" stroke="black" points="224.27,-1130.13 234.2,-1133.84 228.76,-1124.75 224.27,-1130.13"/>
</g>
<!-- 2147483660&#45;&gt;104.19.128.108 -->
<g id="edge32" class="edge">
<title>2147483660&#45;&gt;104.19.128.108</title>
<path fill="none" stroke="black" d="M143.41,-863.83C158.41,-867.9 174.53,-873.74 188,-882 270.57,-932.64 341.3,-1025.76 372.89,-1071.39"/>
<polygon fill="black" stroke="black" points="370.14,-1073.57 378.67,-1079.85 375.92,-1069.62 370.14,-1073.57"/>
</g>
<!-- 2147483663 -->
<g id="node26" class="node">
<title>2147483663</title>
<path fill="#fffb82" stroke="black" stroke-width="2" d="M120.5,-819C120.5,-819 67.5,-819 67.5,-819 61.5,-819 55.5,-813 55.5,-807 55.5,-807 55.5,-795 55.5,-795 55.5,-789 61.5,-783 67.5,-783 67.5,-783 120.5,-783 120.5,-783 126.5,-783 132.5,-789 132.5,-795 132.5,-795 132.5,-807 132.5,-807 132.5,-813 126.5,-819 120.5,-819"/>
<text text-anchor="middle" x="94" y="-797.3" font-family="Arial" font-size="14.00">4chan.org</text>
</g>
<!-- 2147483663&#45;&gt;104.19.129.108 -->
<g id="edge17" class="edge">
<title>2147483663&#45;&gt;104.19.129.108</title>
<path fill="none" stroke="black" d="M132.91,-802.46C152.26,-805.28 174.5,-812.11 188,-828 274.11,-929.32 131.88,-1029.11 224,-1125 224.79,-1125.82 225.59,-1126.62 226.4,-1127.4"/>
<polygon fill="black" stroke="black" points="224.2,-1130.13 234.08,-1133.95 228.75,-1124.8 224.2,-1130.13"/>
</g>
<!-- 2147483663&#45;&gt;104.19.128.108 -->
<g id="edge44" class="edge">
<title>2147483663&#45;&gt;104.19.128.108</title>
<path fill="none" stroke="black" d="M132.71,-806.24C150.65,-810.1 171.68,-816.72 188,-828 282.11,-893.07 350.47,-1015.97 377.61,-1070.62"/>
<polygon fill="black" stroke="black" points="374.51,-1072.25 382.05,-1079.69 380.8,-1069.17 374.51,-1072.25"/>
</g>
<!-- 2147483665 -->
<g id="node27" class="node">
<title>2147483665</title>
<path fill="#fffb82" stroke="black" stroke-width="2" d="M133,-765C133,-765 55,-765 55,-765 49,-765 43,-759 43,-753 43,-753 43,-741 43,-741 43,-735 49,-729 55,-729 55,-729 133,-729 133,-729 139,-729 145,-735 145,-741 145,-741 145,-753 145,-753 145,-759 139,-765 133,-765"/>
<text text-anchor="middle" x="94" y="-743.3" font-family="Arial" font-size="14.00">find.4chan.org</text>
</g>
<!-- 2147483665&#45;&gt;104.19.129.108 -->
<g id="edge19" class="edge">
<title>2147483665&#45;&gt;104.19.129.108</title>
<path fill="none" stroke="black" d="M145,-750.59C161.01,-754.28 177.34,-761.22 188,-774 238.23,-834.21 170.2,-1067.96 224,-1125 224.66,-1125.7 225.33,-1126.38 226.01,-1127.06"/>
<polygon fill="black" stroke="black" points="223.83,-1129.8 233.66,-1133.76 228.45,-1124.54 223.83,-1129.8"/>
</g>
<!-- 2147483665&#45;&gt;104.19.128.108 -->
<g id="edge49" class="edge">
<title>2147483665&#45;&gt;104.19.128.108</title>
<path fill="none" stroke="black" d="M145.41,-754.56C160.18,-758.56 175.66,-764.67 188,-774 294.01,-854.15 358.12,-1007.29 380.98,-1070.08"/>
<polygon fill="black" stroke="black" points="377.76,-1071.46 384.42,-1079.7 384.35,-1069.11 377.76,-1071.46"/>
</g>
<!-- 2147483651 -->
<g id="node28" class="node">
<title>2147483651</title>
<path fill="#fffb82" stroke="black" stroke-width="2" d="M128,-711C128,-711 60,-711 60,-711 54,-711 48,-705 48,-699 48,-699 48,-687 48,-687 48,-681 54,-675 60,-675 60,-675 128,-675 128,-675 134,-675 140,-681 140,-687 140,-687 140,-699 140,-699 140,-705 134,-711 128,-711"/>
<text text-anchor="middle" x="94" y="-689.3" font-family="Arial" font-size="14.00">rs.4chan.org</text>
</g>
<!-- 2147483651&#45;&gt;104.19.129.108 -->
<g id="edge5" class="edge">
<title>2147483651&#45;&gt;104.19.129.108</title>
<path fill="none" stroke="black" d="M140.26,-695.49C157.77,-698.85 176.36,-705.85 188,-720 245.41,-789.77 162.45,-1058.85 224,-1125 224.65,-1125.7 225.32,-1126.39 225.99,-1127.07"/>
<polygon fill="black" stroke="black" points="223.8,-1129.8 233.6,-1133.82 228.44,-1124.56 223.8,-1129.8"/>
</g>
<!-- 2147483651&#45;&gt;104.19.128.108 -->
<g id="edge52" class="edge">
<title>2147483651&#45;&gt;104.19.128.108</title>
<path fill="none" stroke="black" d="M140.05,-698.61C156.52,-702.48 174.41,-709 188,-720 306.31,-815.82 364.82,-999.77 383.58,-1069.9"/>
<polygon fill="black" stroke="black" points="380.24,-1070.98 386.15,-1079.77 387.01,-1069.21 380.24,-1070.98"/>
</g>
<!-- 2147483649 -->
<g id="node29" class="node">
<title>2147483649</title>
<path fill="#fffb82" stroke="black" stroke-width="2" d="M135,-333C135,-333 53,-333 53,-333 47,-333 41,-327 41,-321 41,-321 41,-309 41,-309 41,-303 47,-297 53,-297 53,-297 135,-297 135,-297 141,-297 147,-303 147,-309 147,-309 147,-321 147,-321 147,-327 141,-333 135,-333"/>
<text text-anchor="middle" x="94" y="-311.3" font-family="Arial" font-size="14.00">blog.4chan.org</text>
</g>
<!-- 2147483649&#45;&gt;74.114.154.18 -->
<g id="edge2" class="edge">
<title>2147483649&#45;&gt;74.114.154.18</title>
<path fill="none" stroke="black" d="M147.15,-319.76C171.59,-322 202.16,-324.79 233.28,-327.63"/>
<polygon fill="black" stroke="black" points="233.12,-331.13 243.4,-328.56 233.76,-324.16 233.12,-331.13"/>
</g>
<!-- 2147483649&#45;&gt;74.114.154.22 -->
<g id="edge3" class="edge">
<title>2147483649&#45;&gt;74.114.154.22</title>
<path fill="none" stroke="black" d="M147.15,-310.24C171.59,-308 202.16,-305.21 233.28,-302.37"/>
<polygon fill="black" stroke="black" points="233.76,-305.84 243.4,-301.44 233.12,-298.87 233.76,-305.84"/>
</g>
<!-- 2147483655 -->
<g id="node30" class="node">
<title>2147483655</title>
<path fill="#fffb82" stroke="black" stroke-width="2" d="M138,-657C138,-657 50,-657 50,-657 44,-657 38,-651 38,-645 38,-645 38,-633 38,-633 38,-627 44,-621 50,-621 50,-621 138,-621 138,-621 144,-621 150,-627 150,-633 150,-633 150,-645 150,-645 150,-651 144,-657 138,-657"/>
<text text-anchor="middle" x="94" y="-635.3" font-family="Arial" font-size="14.00">static.4chan.org</text>
</g>
<!-- 2147483655&#45;&gt;104.19.129.108 -->
<g id="edge9" class="edge">
<title>2147483655&#45;&gt;104.19.129.108</title>
<path fill="none" stroke="black" d="M150.03,-643.66C164.43,-647.6 178.55,-654.4 188,-666 252.59,-745.35 154.7,-1049.73 224,-1125 224.65,-1125.71 225.31,-1126.4 225.98,-1127.08"/>
<polygon fill="black" stroke="black" points="223.77,-1129.8 233.56,-1133.86 228.44,-1124.58 223.77,-1129.8"/>
</g>
<!-- 2147483655&#45;&gt;104.19.128.108 -->
<g id="edge46" class="edge">
<title>2147483655&#45;&gt;104.19.128.108</title>
<path fill="none" stroke="black" d="M150.48,-646.9C163.89,-650.9 177.39,-656.93 188,-666 318.77,-777.83 370.65,-992.62 385.56,-1069.64"/>
<polygon fill="black" stroke="black" points="382.14,-1070.39 387.43,-1079.57 389.02,-1069.1 382.14,-1070.39"/>
</g>
<!-- 2147483671 -->
<g id="node31" class="node">
<title>2147483671</title>
<path fill="#fffb82" stroke="black" stroke-width="2" d="M132.5,-603C132.5,-603 55.5,-603 55.5,-603 49.5,-603 43.5,-597 43.5,-591 43.5,-591 43.5,-579 43.5,-579 43.5,-573 49.5,-567 55.5,-567 55.5,-567 132.5,-567 132.5,-567 138.5,-567 144.5,-573 144.5,-579 144.5,-579 144.5,-591 144.5,-591 144.5,-597 138.5,-603 132.5,-603"/>
<text text-anchor="middle" x="94" y="-581.3" font-family="Arial" font-size="14.00">sys.4chan.org</text>
</g>
<!-- 2147483671&#45;&gt;104.19.129.108 -->
<g id="edge25" class="edge">
<title>2147483671&#45;&gt;104.19.129.108</title>
<path fill="none" stroke="black" d="M144.75,-588.29C160.94,-591.94 177.44,-598.92 188,-612 259.78,-700.92 146.94,-1040.61 224,-1125 224.65,-1125.71 225.31,-1126.41 225.98,-1127.09"/>
<polygon fill="black" stroke="black" points="223.75,-1129.8 233.52,-1133.89 228.44,-1124.6 223.75,-1129.8"/>
</g>
<!-- 2147483671&#45;&gt;104.19.128.108 -->
<g id="edge50" class="edge">
<title>2147483671&#45;&gt;104.19.128.108</title>
<path fill="none" stroke="black" d="M144.95,-590.98C160.21,-594.9 176.09,-601.36 188,-612 331.65,-740.37 376.02,-986.78 387.22,-1069.86"/>
<polygon fill="black" stroke="black" points="383.76,-1070.35 388.51,-1079.82 390.7,-1069.45 383.76,-1070.35"/>
</g>
<!-- 2147483650 -->
<g id="node32" class="node">
<title>2147483650</title>
<path fill="#fffb82" stroke="black" stroke-width="2" d="M131,-495C131,-495 57,-495 57,-495 51,-495 45,-489 45,-483 45,-483 45,-471 45,-471 45,-465 51,-459 57,-459 57,-459 131,-459 131,-459 137,-459 143,-465 143,-471 143,-471 143,-483 143,-483 143,-489 137,-495 131,-495"/>
<text text-anchor="middle" x="94" y="-473.3" font-family="Arial" font-size="14.00">is2.4chan.org</text>
</g>
<!-- 2147483650&#45;&gt;158.69.18.72 -->
<g id="edge4" class="edge">
<title>2147483650&#45;&gt;158.69.18.72</title>
<path fill="none" stroke="black" d="M143.08,-487.41C157.91,-491.54 174.01,-497.02 188,-504 205.89,-512.93 205.6,-523.17 224,-531 252.93,-543.3 286.87,-550.04 316.54,-553.71"/>
<polygon fill="black" stroke="black" points="316.5,-557.22 326.83,-554.88 317.3,-550.27 316.5,-557.22"/>
</g>
<!-- 2147483650&#45;&gt;142.44.218.139 -->
<g id="edge28" class="edge">
<title>2147483650&#45;&gt;142.44.218.139</title>
<path fill="none" stroke="black" d="M143.13,-481.4C188.07,-485.5 256.03,-491.71 309.35,-496.59"/>
<polygon fill="black" stroke="black" points="309.19,-500.09 319.47,-497.51 309.83,-493.11 309.19,-500.09"/>
</g>
<!-- 2147483650&#45;&gt;144.217.129.129 -->
<g id="edge29" class="edge">
<title>2147483650&#45;&gt;144.217.129.129</title>
<path fill="none" stroke="black" d="M143.13,-472.6C186.92,-468.6 252.56,-462.6 305.22,-457.79"/>
<polygon fill="black" stroke="black" points="305.59,-461.27 315.23,-456.88 304.95,-454.3 305.59,-461.27"/>
</g>
<!-- 2147483650&#45;&gt;144.217.123.248 -->
<g id="edge55" class="edge">
<title>2147483650&#45;&gt;144.217.123.248</title>
<path fill="none" stroke="black" d="M131.7,-458.9C157.07,-447.08 191.9,-432.18 224,-423 250.09,-415.54 279.11,-409.94 305.51,-405.83"/>
<polygon fill="black" stroke="black" points="306.13,-409.28 315.49,-404.33 305.08,-402.36 306.13,-409.28"/>
</g>
<!-- 2147483669 -->
<g id="node33" class="node">
<title>2147483669</title>
<path fill="#fffb82" stroke="black" stroke-width="2" d="M131,-549C131,-549 57,-549 57,-549 51,-549 45,-543 45,-537 45,-537 45,-525 45,-525 45,-519 51,-513 57,-513 57,-513 131,-513 131,-513 137,-513 143,-519 143,-525 143,-525 143,-537 143,-537 143,-543 137,-549 131,-549"/>
<text text-anchor="middle" x="94" y="-527.3" font-family="Arial" font-size="14.00">api.4chan.org</text>
</g>
<!-- 2147483669&#45;&gt;104.19.129.108 -->
<g id="edge23" class="edge">
<title>2147483669&#45;&gt;104.19.129.108</title>
<path fill="none" stroke="black" d="M143.34,-533.93C160,-537.48 177.17,-544.49 188,-558 266.98,-656.5 139.17,-1031.49 224,-1125 224.65,-1125.71 225.3,-1126.41 225.97,-1127.09"/>
<polygon fill="black" stroke="black" points="223.74,-1129.79 233.49,-1133.92 228.44,-1124.61 223.74,-1129.79"/>
</g>
<!-- 2147483669&#45;&gt;104.19.128.108 -->
<g id="edge39" class="edge">
<title>2147483669&#45;&gt;104.19.128.108</title>
<path fill="none" stroke="black" d="M143.26,-536.25C159.12,-540.09 175.79,-546.69 188,-558 344.52,-703.02 380.78,-980.81 388.53,-1069.82"/>
<polygon fill="black" stroke="black" points="385.06,-1070.27 389.36,-1079.95 392.03,-1069.7 385.06,-1070.27"/>
</g>
<!-- 2147483652 -->
<g id="node34" class="node">
<title>2147483652</title>
<path fill="#fffb82" stroke="black" stroke-width="2" d="M143,-1737C143,-1737 45,-1737 45,-1737 39,-1737 33,-1731 33,-1725 33,-1725 33,-1713 33,-1713 33,-1707 39,-1701 45,-1701 45,-1701 143,-1701 143,-1701 149,-1701 155,-1707 155,-1713 155,-1713 155,-1725 155,-1725 155,-1731 149,-1737 143,-1737"/>
<text text-anchor="middle" x="94" y="-1715.3" font-family="Arial" font-size="14.00">reports.4chan.org</text>
</g>
<!-- 2147483652&#45;&gt;104.19.129.108 -->
<g id="edge6" class="edge">
<title>2147483652&#45;&gt;104.19.129.108</title>
<path fill="none" stroke="black" d="M155.34,-1710.29C167.25,-1706.28 178.87,-1700.46 188,-1692 344.52,-1546.98 380.78,-1269.19 388.53,-1180.18"/>
<polygon fill="black" stroke="black" points="392.03,-1180.3 389.36,-1170.05 385.06,-1179.73 392.03,-1180.3"/>
</g>
<!-- 2147483652&#45;&gt;104.19.128.108 -->
<g id="edge40" class="edge">
<title>2147483652&#45;&gt;104.19.128.108</title>
<path fill="none" stroke="black" d="M155.46,-1712.83C167.96,-1708.73 179.8,-1702.23 188,-1692 266.98,-1593.5 139.17,-1218.51 224,-1125 224.65,-1124.29 225.3,-1123.59 225.97,-1122.91"/>
<polygon fill="black" stroke="black" points="228.44,-1125.39 233.49,-1116.08 223.74,-1120.21 228.44,-1125.39"/>
</g>
<!-- 2147483657 -->
<g id="node35" class="node">
<title>2147483657</title>
<path fill="#fffb82" stroke="black" stroke-width="2" d="M133.5,-1683C133.5,-1683 54.5,-1683 54.5,-1683 48.5,-1683 42.5,-1677 42.5,-1671 42.5,-1671 42.5,-1659 42.5,-1659 42.5,-1653 48.5,-1647 54.5,-1647 54.5,-1647 133.5,-1647 133.5,-1647 139.5,-1647 145.5,-1653 145.5,-1659 145.5,-1659 145.5,-1671 145.5,-1671 145.5,-1677 139.5,-1683 133.5,-1683"/>
<text text-anchor="middle" x="94" y="-1661.3" font-family="Arial" font-size="14.00">img.4chan.org</text>
</g>
<!-- 2147483657&#45;&gt;104.19.129.108 -->
<g id="edge11" class="edge">
<title>2147483657&#45;&gt;104.19.129.108</title>
<path fill="none" stroke="black" d="M145.92,-1658.77C160.88,-1654.83 176.34,-1648.42 188,-1638 331.65,-1509.63 376.02,-1263.22 387.22,-1180.14"/>
<polygon fill="black" stroke="black" points="390.7,-1180.55 388.51,-1170.18 383.76,-1179.65 390.7,-1180.55"/>
</g>
<!-- 2147483657&#45;&gt;104.19.128.108 -->
<g id="edge41" class="edge">
<title>2147483657&#45;&gt;104.19.128.108</title>
<path fill="none" stroke="black" d="M145.72,-1661.49C161.6,-1657.78 177.65,-1650.82 188,-1638 259.78,-1549.08 146.94,-1209.39 224,-1125 224.65,-1124.29 225.31,-1123.59 225.98,-1122.91"/>
<polygon fill="black" stroke="black" points="228.44,-1125.4 233.52,-1116.11 223.75,-1120.2 228.44,-1125.4"/>
</g>
<!-- 2147483658 -->
<g id="node36" class="node">
<title>2147483658</title>
<path fill="#fffb82" stroke="black" stroke-width="2" d="M143,-1629C143,-1629 45,-1629 45,-1629 39,-1629 33,-1623 33,-1617 33,-1617 33,-1605 33,-1605 33,-1599 39,-1593 45,-1593 45,-1593 143,-1593 143,-1593 149,-1593 155,-1599 155,-1605 155,-1605 155,-1617 155,-1617 155,-1623 149,-1629 143,-1629"/>
<text text-anchor="middle" x="94" y="-1607.3" font-family="Arial" font-size="14.00">boards.4chan.org</text>
</g>
<!-- 2147483658&#45;&gt;104.19.129.108 -->
<g id="edge12" class="edge">
<title>2147483658&#45;&gt;104.19.129.108</title>
<path fill="none" stroke="black" d="M155.33,-1601.56C167.1,-1597.6 178.67,-1591.98 188,-1584 318.77,-1472.17 370.65,-1257.38 385.56,-1180.36"/>
<polygon fill="black" stroke="black" points="389.02,-1180.9 387.43,-1170.43 382.14,-1179.61 389.02,-1180.9"/>
</g>
<!-- 2147483658&#45;&gt;104.19.128.108 -->
<g id="edge34" class="edge">
<title>2147483658&#45;&gt;104.19.128.108</title>
<path fill="none" stroke="black" d="M155.35,-1604.74C167.85,-1600.65 179.72,-1594.17 188,-1584 252.59,-1504.65 154.7,-1200.27 224,-1125 224.65,-1124.29 225.31,-1123.6 225.98,-1122.92"/>
<polygon fill="black" stroke="black" points="228.44,-1125.42 233.56,-1116.14 223.77,-1120.2 228.44,-1125.42"/>
</g>
<!-- 2147483653 -->
<g id="node37" class="node">
<title>2147483653</title>
<path fill="#fffb82" stroke="black" stroke-width="2" d="M150.5,-1575C150.5,-1575 37.5,-1575 37.5,-1575 31.5,-1575 25.5,-1569 25.5,-1563 25.5,-1563 25.5,-1551 25.5,-1551 25.5,-1545 31.5,-1539 37.5,-1539 37.5,-1539 150.5,-1539 150.5,-1539 156.5,-1539 162.5,-1545 162.5,-1551 162.5,-1551 162.5,-1563 162.5,-1563 162.5,-1569 156.5,-1575 150.5,-1575"/>
<text text-anchor="middle" x="94" y="-1553.3" font-family="Arial" font-size="14.00">1.thumbs.4chan.org</text>
</g>
<!-- 2147483653&#45;&gt;104.19.129.108 -->
<g id="edge7" class="edge">
<title>2147483653&#45;&gt;104.19.129.108</title>
<path fill="none" stroke="black" d="M162.72,-1544.35C171.81,-1540.72 180.55,-1536.03 188,-1530 306.31,-1434.18 364.82,-1250.23 383.58,-1180.1"/>
<polygon fill="black" stroke="black" points="387.01,-1180.79 386.15,-1170.23 380.24,-1179.02 387.01,-1180.79"/>
</g>
<!-- 2147483653&#45;&gt;104.19.128.108 -->
<g id="edge31" class="edge">
<title>2147483653&#45;&gt;104.19.128.108</title>
<path fill="none" stroke="black" d="M162.87,-1547.85C172.51,-1543.78 181.38,-1538.05 188,-1530 245.41,-1460.23 162.45,-1191.15 224,-1125 224.65,-1124.3 225.32,-1123.61 225.99,-1122.93"/>
<polygon fill="black" stroke="black" points="228.44,-1125.44 233.6,-1116.18 223.8,-1120.2 228.44,-1125.44"/>
</g>
<!-- 2147483662 -->
<g id="node38" class="node">
<title>2147483662</title>
<path fill="#fffb82" stroke="black" stroke-width="2" d="M147.5,-1521C147.5,-1521 40.5,-1521 40.5,-1521 34.5,-1521 28.5,-1515 28.5,-1509 28.5,-1509 28.5,-1497 28.5,-1497 28.5,-1491 34.5,-1485 40.5,-1485 40.5,-1485 147.5,-1485 147.5,-1485 153.5,-1485 159.5,-1491 159.5,-1497 159.5,-1497 159.5,-1509 159.5,-1509 159.5,-1515 153.5,-1521 147.5,-1521"/>
<text text-anchor="middle" x="94" y="-1499.3" font-family="Arial" font-size="14.00">currency.4chan.org</text>
</g>
<!-- 2147483662&#45;&gt;104.19.129.108 -->
<g id="edge16" class="edge">
<title>2147483662&#45;&gt;104.19.129.108</title>
<path fill="none" stroke="black" d="M159.95,-1490.81C169.94,-1487.11 179.69,-1482.29 188,-1476 294.01,-1395.85 358.12,-1242.71 380.98,-1179.92"/>
<polygon fill="black" stroke="black" points="384.35,-1180.89 384.42,-1170.3 377.76,-1178.54 384.35,-1180.89"/>
</g>
<!-- 2147483662&#45;&gt;104.19.128.108 -->
<g id="edge36" class="edge">
<title>2147483662&#45;&gt;104.19.128.108</title>
<path fill="none" stroke="black" d="M159.95,-1494.91C170.68,-1490.8 180.68,-1484.78 188,-1476 238.23,-1415.79 170.2,-1182.04 224,-1125 224.66,-1124.3 225.33,-1123.62 226.01,-1122.94"/>
<polygon fill="black" stroke="black" points="228.45,-1125.46 233.66,-1116.24 223.83,-1120.2 228.45,-1125.46"/>
</g>
<!-- 2147483661 -->
<g id="node39" class="node">
<title>2147483661</title>
<path fill="#fffb82" stroke="black" stroke-width="2" d="M131,-1467C131,-1467 57,-1467 57,-1467 51,-1467 45,-1461 45,-1455 45,-1455 45,-1443 45,-1443 45,-1437 51,-1431 57,-1431 57,-1431 131,-1431 131,-1431 137,-1431 143,-1437 143,-1443 143,-1443 143,-1455 143,-1455 143,-1461 137,-1467 131,-1467"/>
<text text-anchor="middle" x="94" y="-1445.3" font-family="Arial" font-size="14.00">dis.4chan.org</text>
</g>
<!-- 2147483661&#45;&gt;104.19.129.108 -->
<g id="edge15" class="edge">
<title>2147483661&#45;&gt;104.19.129.108</title>
<path fill="none" stroke="black" d="M143.02,-1441.3C158.33,-1437.27 174.72,-1431.18 188,-1422 282.11,-1356.93 350.47,-1234.03 377.61,-1179.38"/>
<polygon fill="black" stroke="black" points="380.8,-1180.83 382.05,-1170.31 374.51,-1177.75 380.8,-1180.83"/>
</g>
<!-- 2147483661&#45;&gt;104.19.128.108 -->
<g id="edge47" class="edge">
<title>2147483661&#45;&gt;104.19.128.108</title>
<path fill="none" stroke="black" d="M143.42,-1445.63C159.87,-1442.01 176.89,-1435.07 188,-1422 274.11,-1320.68 131.88,-1220.89 224,-1125 224.79,-1124.18 225.59,-1123.38 226.4,-1122.6"/>
<polygon fill="black" stroke="black" points="228.75,-1125.2 234.08,-1116.05 224.2,-1119.87 228.75,-1125.2"/>
</g>
</g>
</svg>
